<?xml version="1.0" encoding="UTF-8" standalone="no"?>
<!-- Created with Inkscape (http://www.inkscape.org/) -->

<svg
   width="350mm"
   height="350mm"
   viewBox="0 0 350 350"
   version="1.1"
   id="svg11026"
   sodipodi:docname="frontefinale.svg"
   inkscape:version="1.2.2 (732a01da63, 2022-12-09)"
   xml:space="preserve"
   xmlns:inkscape="http://www.inkscape.org/namespaces/inkscape"
   xmlns:sodipodi="http://sodipodi.sourceforge.net/DTD/sodipodi-0.dtd"
   xmlns="http://www.w3.org/2000/svg"
   xmlns:svg="http://www.w3.org/2000/svg"><sodipodi:namedview
     id="namedview11028"
     pagecolor="#ffffff"
     bordercolor="#eeeeee"
     borderopacity="1"
     inkscape:showpageshadow="0"
     inkscape:pageopacity="0"
     inkscape:pagecheckerboard="0"
     inkscape:deskcolor="#505050"
     inkscape:document-units="mm"
     showgrid="false"
     inkscape:zoom="0.35355339"
     inkscape:cx="733.97684"
     inkscape:cy="814.58701"
     inkscape:window-width="1600"
     inkscape:window-height="829"
     inkscape:window-x="-8"
     inkscape:window-y="-8"
     inkscape:window-maximized="1"
     inkscape:current-layer="layer1"
     inkscape:lockguides="false" /><defs
     id="defs11023"><inkscape:path-effect
       effect="spiro"
       id="path-effect4503"
       is_visible="true"
       lpeversion="1" /><inkscape:path-effect
       effect="spiro"
       id="path-effect4439"
       is_visible="true"
       lpeversion="1" /><inkscape:path-effect
       effect="spiro"
       id="path-effect4378"
       is_visible="true"
       lpeversion="1" /><inkscape:path-effect
       effect="spiro"
       id="path-effect3417"
       is_visible="true"
       lpeversion="1" /><inkscape:path-effect
       effect="spiro"
       id="path-effect13952"
       is_visible="true"
       lpeversion="1" /><inkscape:path-effect
       effect="spiro"
       id="path-effect13948"
       is_visible="true"
       lpeversion="1" /><inkscape:path-effect
       effect="spiro"
       id="path-effect13944"
       is_visible="true"
       lpeversion="1" /><inkscape:path-effect
       effect="spiro"
       id="path-effect13940"
       is_visible="true"
       lpeversion="1" /><inkscape:path-effect
       effect="spiro"
       id="path-effect13936"
       is_visible="true"
       lpeversion="1" /><inkscape:path-effect
       effect="spiro"
       id="path-effect13932"
       is_visible="true"
       lpeversion="1" /><inkscape:path-effect
       effect="spiro"
       id="path-effect13928"
       is_visible="true"
       lpeversion="1" /><inkscape:path-effect
       effect="spiro"
       id="path-effect12511"
       is_visible="true"
       lpeversion="1" /><inkscape:path-effect
       effect="spiro"
       id="path-effect12507"
       is_visible="true"
       lpeversion="1" /><inkscape:path-effect
       effect="spiro"
       id="path-effect12461"
       is_visible="true"
       lpeversion="1" /><inkscape:path-effect
       effect="spiro"
       id="path-effect12457"
       is_visible="true"
       lpeversion="1" /><inkscape:path-effect
       effect="spiro"
       id="path-effect12453"
       is_visible="true"
       lpeversion="1" /><inkscape:path-effect
       effect="spiro"
       id="path-effect12361"
       is_visible="true"
       lpeversion="1" /><inkscape:path-effect
       effect="spiro"
       id="path-effect12361-2"
       is_visible="true"
       lpeversion="1" /><inkscape:path-effect
       effect="spiro"
       id="path-effect12361-29"
       is_visible="true"
       lpeversion="1" /><inkscape:path-effect
       effect="spiro"
       id="path-effect12453-3"
       is_visible="true"
       lpeversion="1" /><inkscape:path-effect
       effect="spiro"
       id="path-effect12453-5"
       is_visible="true"
       lpeversion="1" /><inkscape:path-effect
       effect="spiro"
       id="path-effect12457-0"
       is_visible="true"
       lpeversion="1" /><inkscape:path-effect
       effect="spiro"
       id="path-effect12457-3"
       is_visible="true"
       lpeversion="1" /><inkscape:path-effect
       effect="spiro"
       id="path-effect12453-3-4"
       is_visible="true"
       lpeversion="1" /><inkscape:path-effect
       effect="spiro"
       id="path-effect3417-7"
       is_visible="true"
       lpeversion="1" /><inkscape:path-effect
       effect="spiro"
       id="path-effect3417-73"
       is_visible="true"
       lpeversion="1" /><inkscape:path-effect
       effect="spiro"
       id="path-effect3417-1"
       is_visible="true"
       lpeversion="1" /><inkscape:path-effect
       effect="spiro"
       id="path-effect3417-1-5"
       is_visible="true"
       lpeversion="1" /><inkscape:path-effect
       effect="spiro"
       id="path-effect3417-73-5"
       is_visible="true"
       lpeversion="1" /><inkscape:path-effect
       effect="spiro"
       id="path-effect3417-1-3"
       is_visible="true"
       lpeversion="1" /></defs><g
     id="layer5"
     inkscape:label="Livello 2"
     transform="matrix(0.34754036,0.01036828,-0.0097659,0.32734883,68.045836,18.173359)"
     style="display:inline"
     inkscape:groupmode="layer"
     inkscape:transform-center-x="14.209941"
     inkscape:transform-center-y="0.33854362" /><g
     inkscape:label="Livello 1"
     inkscape:groupmode="layer"
     id="layer1"
     style="display:inline"><g
       inkscape:label="Rendered Gears"
       transform="translate(27.457644,26.225909)"
       id="g11040"
       style="display:none"><path
         style="fill:none;stroke:#000000;stroke-width:0.5;stroke-dasharray:none"
         d="m 12.2926,-3.31745 5.8662,-1.58312 0.289,-0.04251 6.9124,2.63726 V 2.30582 L 18.4478,4.94308 18.1588,4.90057 12.2926,3.31745 9.0193,8.987 l 4.3041,4.2887 0.1813,0.229 1.1723,7.305 -3.9938,2.3058 -5.74012,-4.6677 -0.1077,-0.2715 -1.56206,-5.8719 h -6.54664 l -1.56206,5.8719 -0.1077,0.2715 -5.74012,4.6677 -3.9938,-2.3058 1.1723,-7.305 0.1813,-0.229 4.3041,-4.2887 -3.2733,-5.66955 -5.8662,1.58312 -0.289,0.04251 -6.9124,-2.63726 v -4.61164 l 6.9124,-2.63726 0.289,0.04251 5.8662,1.58312 3.2733,-5.66955 -4.3041,-4.2887 -0.1813,-0.229 -1.1723,-7.305 3.9938,-2.3058 5.74012,4.6677 0.1077,0.2715 1.56206,5.8719 h 6.54664 l 1.56206,-5.8719 0.1077,-0.2715 5.74012,-4.6677 3.9938,2.3058 -1.1723,7.305 -0.1813,0.229 -4.3041,4.2887 z"
         id="path11036" /><circle
         style="fill:none;stroke:#000000;stroke-width:0.5;stroke-dasharray:none"
         id="path11038"
         cx="0"
         cy="0"
         r="2.5" /></g><g
       inkscape:label="Rendered Gears"
       transform="rotate(120,40.35642,138.25612)"
       id="g11115"
       style="display:inline;stroke:#000000"><path
         style="display:inline;opacity:0.99;fill:none;stroke:#000000;stroke-width:0.499999;stroke-dasharray:none"
         id="interno"
         sodipodi:type="arc"
         sodipodi:cx="-0.039148808"
         sodipodi:cy="0.067807473"
         sodipodi:rx="19.253695"
         sodipodi:ry="19.253695"
         sodipodi:start="1.8793004"
         sodipodi:end="3.321608"
         sodipodi:arc-type="arc"
         d="M -5.8852188,18.412513 A 19.253695,19.253695 0 0 1 -18.981722,-3.3794639"
         sodipodi:open="true"
         transform="translate(0.11743573,-0.0676982)" /><circle
         style="fill:none;stroke:#000000;stroke-width:0.5;stroke-dasharray:none"
         id="path11113"
         cx="0"
         cy="0"
         r="2.5" /><path
         style="display:inline;opacity:0.99;fill:none;stroke:#000000;stroke-width:0.499999;stroke-dasharray:none"
         id="quello_giusto"
         sodipodi:type="arc"
         sodipodi:cx="0.078293666"
         sodipodi:cy="2.0276727e-06"
         sodipodi:rx="92.254723"
         sodipodi:ry="92.254723"
         sodipodi:start="1.6387146"
         sodipodi:end="3.5969929"
         sodipodi:arc-type="arc"
         d="M -6.1826717,92.042026 A 92.254723,92.254723 0 0 1 -79.810175,46.138558 92.254723,92.254723 0 0 1 -82.774295,-40.575637"
         sodipodi:open="true" /><path
         style="opacity:0.99;fill:none;stroke:#000000;stroke-width:0.5;stroke-dasharray:none"
         d="M -6.0568162,18.420285 V 92.291449"
         id="path12359-8"
         sodipodi:nodetypes="cc"
         inkscape:original-d="m -6.0568162,18.420285 c 3.06e-4,24.801227 1.8e-4,51.1456 0,73.871164"
         inkscape:path-effect="#path-effect12361-29" /><path
         style="opacity:0.99;fill:none;stroke:#000000;stroke-width:0.499999;stroke-dasharray:none"
         d="M -18.778542,-3.3482914 -82.806003,-40.314583"
         id="path12455-0"
         sodipodi:nodetypes="cc"
         inkscape:original-d="M -18.778542,-3.3482914 C -40.121042,-15.670366 -61.463527,-27.992467 -82.806003,-40.314583"
         inkscape:path-effect="#path-effect12457-3" /><path
         style="display:none;opacity:0.99;fill:none;stroke:#000000;stroke-width:0.499999;stroke-dasharray:none"
         id="quello_giusto-0-8"
         sodipodi:type="arc"
         sodipodi:cx="0.078293666"
         sodipodi:cy="0.00018861245"
         sodipodi:rx="92.254723"
         sodipodi:ry="92.254723"
         sodipodi:start="1.6387146"
         sodipodi:end="1.6299537"
         sodipodi:arc-type="arc"
         d="M -6.1826717,92.042212 A 92.254723,92.254723 0 0 1 -91.977222,-6.0591691 92.254723,92.254723 0 0 1 5.9360147,-92.068378 92.254723,92.254723 0 0 1 92.159469,5.6562449 92.254723,92.254723 0 0 1 -5.3760707,92.093531"
         sodipodi:open="true" /><g
         transform="matrix(-0.00757764,-0.01312485,-0.01312485,0.00757764,155.32137,47.706803)"
         fill="#000000"
         stroke="none"
         id="g1117"
         style="fill:#000000;stroke:#000000;stroke-width:32.99181631;stroke-dasharray:none"><path
           d="m 7480,6369 c -246,-48 -486,-368 -580,-774 -13,-55 -27,-104 -32,-109 -12,-15 -217,11 -315,40 -48,14 -89,27 -91,28 -1,2 9,70 23,152 35,196 29,293 -19,357 -61,82 -214,129 -301,93 -84,-36 -124,-96 -172,-266 -29,-102 -41,-130 -53,-127 -8,3 -80,30 -160,60 -271,104 -431,141 -600,141 -123,0 -211,-17 -307,-59 -74,-33 -95,-83 -52,-126 26,-26 59,-22 149,17 61,27 73,29 190,27 186,-2 342,-40 632,-154 99,-39 128,-55 128,-69 0,-10 -9,-69 -19,-132 -30,-175 -51,-374 -60,-588 -9,-191 -10,-198 -56,-349 -119,-397 -233,-645 -358,-780 -40,-43 -85,-77 -92,-69 -3,2 -12,40 -21,84 -14,66 -16,123 -11,359 7,364 27,495 139,910 62,231 68,313 28,385 -28,51 -99,103 -163,121 -160,45 -264,-35 -348,-268 -11,-32 -25,-70 -31,-85 l -10,-28 -57,44 c -157,123 -331,166 -466,115 -144,-54 -277,-254 -325,-490 -19,-91 -83,-221 -214,-433 -98,-158 -213,-271 -259,-253 -27,10 -87,309 -87,430 0,78 -5,71 138,190 99,81 195,199 247,304 32,64 39,90 43,155 4,69 2,84 -22,132 -34,69 -111,140 -196,179 -81,39 -197,48 -281,24 -117,-35 -261,-172 -334,-320 -97,-197 -142,-528 -99,-735 33,-159 126,-325 222,-395 194,-143 427,-153 567,-25 61,55 159,197 226,325 l 42,82 21,-63 c 51,-149 184,-266 340,-298 133,-26 207,20 338,212 17,24 17,23 17,-56 2,-217 89,-478 204,-609 138,-157 362,-221 493,-139 110,68 242,291 350,589 29,82 33,87 39,60 40,-187 71,-251 165,-345 112,-112 259,-165 396,-142 39,6 82,21 104,36 80,53 199,296 336,686 3,9 18,-9 40,-50 72,-135 182,-209 322,-218 62,-4 81,-1 123,18 l 49,24 41,130 c 78,251 163,458 247,602 46,79 131,198 138,192 2,-3 -21,-153 -51,-334 -72,-434 -85,-528 -85,-631 0,-277 155,-495 384,-543 91,-19 140,-7 191,46 76,77 178,302 285,627 17,53 33,97 35,97 2,0 15,-25 29,-56 38,-83 109,-177 164,-218 194,-142 427,-152 567,-24 94,86 234,318 330,548 16,37 42,78 61,95 26,23 39,49 58,115 31,105 107,435 137,591 l 21,116 87,-34 c 47,-19 99,-42 115,-50 l 29,-15 -6,-166 c -6,-165 -11,-214 -62,-612 -24,-182 -26,-229 -22,-420 4,-229 10,-262 64,-376 39,-83 92,-136 183,-183 141,-74 302,-87 378,-31 103,76 224,327 366,759 70,210 101,331 88,343 -17,17 -103,32 -120,22 -10,-7 -45,-90 -83,-195 -122,-340 -242,-607 -309,-689 l -28,-34 -9,49 c -4,28 -8,145 -7,260 0,177 5,247 32,445 76,566 68,677 -56,798 -73,71 -152,117 -306,177 -78,30 -152,62 -164,71 -12,8 -38,46 -56,82 -19,37 -47,79 -63,94 -54,52 -156,73 -212,44 -57,-30 -68,-120 -25,-194 24,-40 26,-52 20,-106 -7,-72 -57,-333 -116,-602 l -41,-192 -81,-148 c -120,-220 -196,-338 -265,-414 -61,-66 -110,-97 -136,-87 -27,10 -86,309 -87,435 0,72 -4,67 138,185 99,81 195,199 247,304 32,64 39,90 43,155 4,69 2,84 -22,132 -34,69 -111,140 -196,179 -50,24 -82,32 -145,35 -105,6 -171,-13 -250,-71 -198,-144 -297,-353 -329,-697 -14,-143 -16,-149 -96,-365 -126,-342 -167,-444 -208,-519 -47,-87 -65,-96 -57,-29 25,224 52,419 80,593 51,309 58,385 45,465 -41,258 -310,461 -494,374 -134,-63 -284,-291 -418,-636 -23,-62 -46,-113 -50,-113 -14,0 -20,218 -9,325 11,96 50,348 67,427 4,22 22,36 95,75 176,93 318,232 399,393 54,107 72,178 74,285 1,79 -2,97 -25,140 -53,104 -180,166 -338,164 -47,-1 -106,-5 -131,-10 z m 324,-191 c 12,-46 5,-148 -14,-209 -23,-75 -95,-203 -163,-289 -59,-76 -167,-147 -167,-111 0,4 23,75 50,157 56,165 144,353 187,399 33,35 82,75 93,75 4,0 10,-10 14,-22 z M 6520,5386 c 96,-31 218,-56 270,-56 27,0 43,-5 46,-15 4,-8 0,-59 -6,-113 -7,-53 -15,-198 -17,-322 l -3,-225 -75,-190 c -98,-245 -136,-331 -184,-413 -51,-87 -101,-155 -108,-148 -7,7 -25,134 -49,351 -20,179 -23,643 -5,805 20,186 44,350 50,350 3,0 40,-11 81,-24 z m -2722,-27 c 9,-16 11,-48 9,-94 -5,-76 -32,-147 -92,-240 -35,-55 -161,-195 -175,-195 -11,0 28,147 70,265 64,180 133,302 165,292 5,-2 16,-14 23,-28 z m 5550,0 c 9,-16 11,-48 9,-94 -5,-76 -32,-147 -92,-240 -35,-55 -161,-195 -175,-195 -11,0 28,147 70,265 64,180 133,302 165,292 5,-2 16,-14 23,-28 z M 4750,5179 c 51,-31 89,-69 111,-111 l 19,-36 -34,-154 c -19,-84 -38,-175 -41,-201 -6,-36 -22,-69 -69,-135 -62,-89 -201,-242 -218,-242 -18,0 17,327 53,505 32,154 75,319 94,359 20,41 36,44 85,15 z"
           id="path1109"
           style="fill:#000000;stroke:#000000;stroke-width:32.99181631;stroke-dasharray:none" /><path
           d="m 2455,6180 c -13,-41 7,-82 65,-140 32,-32 67,-75 78,-96 32,-63 70,-196 99,-342 26,-131 27,-152 27,-452 1,-389 -17,-540 -92,-760 -76,-222 -231,-430 -402,-539 -80,-52 -105,-59 -129,-36 -67,60 -150,422 -173,757 -10,159 -4,377 19,643 5,67 4,72 -22,103 -57,68 -186,108 -319,100 -145,-9 -178,-54 -201,-277 -41,-385 -184,-709 -368,-832 -33,-21 -63,-39 -68,-39 -33,0 -63,215 -55,400 9,234 39,381 121,585 29,72 55,144 58,160 12,67 -57,137 -168,171 -70,21 -205,20 -250,-2 -104,-49 -217,-282 -265,-544 -27,-146 -37,-370 -21,-470 35,-222 208,-400 449,-460 94,-24 152,-25 222,-4 101,30 222,175 290,345 18,46 36,87 40,92 3,4 12,-42 19,-104 21,-179 55,-311 110,-424 82,-167 203,-277 366,-331 68,-22 98,-26 195,-27 95,0 125,4 172,22 259,100 486,436 577,852 34,157 52,323 58,529 17,590 -93,986 -311,1110 -61,36 -112,40 -121,10 z"
           id="path1111"
           style="fill:#000000;stroke:#000000;stroke-width:32.99181631;stroke-dasharray:none" /><path
           d="m 7366,3414 c -257,-46 -560,-205 -872,-456 -253,-203 -461,-438 -556,-630 -68,-136 -83,-189 -83,-288 0,-113 30,-176 135,-280 197,-197 440,-247 1000,-204 253,19 637,25 702,11 77,-16 83,-59 25,-170 -57,-110 -227,-249 -344,-283 -50,-14 -56,-14 -79,1 -14,9 -37,37 -52,62 -56,96 -110,139 -164,131 -34,-5 -36,-56 -3,-123 28,-59 132,-163 193,-194 106,-54 262,-68 365,-33 133,44 276,166 336,284 67,134 51,220 -63,333 -79,79 -155,121 -276,154 -138,38 -243,44 -727,42 -417,-1 -596,6 -648,25 -36,14 -5,132 67,251 18,30 71,103 118,162 271,340 651,643 1042,831 162,77 236,101 335,107 77,5 82,4 94,-18 18,-35 24,-219 9,-303 -35,-194 -155,-454 -341,-738 -32,-49 -56,-94 -53,-101 7,-19 59,-47 87,-47 81,0 360,452 454,735 32,97 37,125 41,232 3,94 0,133 -12,168 l -15,46 62,-7 c 77,-9 113,-19 110,-30 -1,-5 -15,-81 -32,-168 -58,-292 -83,-538 -88,-859 -9,-502 28,-693 159,-825 139,-141 338,-191 465,-116 70,41 177,241 269,501 16,46 31,83 34,83 3,-1 22,-25 42,-54 89,-128 289,-202 396,-147 44,23 96,76 144,148 l 35,51 6,-91 c 21,-316 145,-560 331,-652 156,-77 271,-69 366,26 88,88 208,317 280,534 l 24,70 13,-65 c 18,-86 49,-178 72,-214 34,-52 113,-125 171,-161 116,-71 266,-83 357,-29 55,32 117,132 193,310 55,129 58,134 65,102 45,-212 349,-390 550,-322 101,35 204,168 288,374 22,52 41,96 42,98 2,2 14,-18 26,-44 69,-138 218,-234 364,-235 80,-1 110,8 170,47 196,129 295,556 189,820 -13,33 -24,64 -24,67 0,4 48,7 108,7 h 107 v -203 c 1,-281 25,-382 118,-484 98,-107 215,-164 344,-166 115,-1 128,22 229,408 100,377 177,570 286,717 l 43,57 8,-42 c 13,-66 -1,-316 -35,-632 -39,-362 -41,-498 -10,-615 63,-233 236,-422 402,-438 88,-8 118,4 184,72 104,107 198,299 276,562 43,146 120,480 120,520 0,43 -99,73 -119,37 -5,-10 -37,-118 -71,-241 -82,-298 -139,-463 -209,-607 -58,-118 -124,-211 -142,-199 -16,10 -10,144 21,440 57,532 60,578 66,794 6,204 5,218 -15,271 -12,31 -35,76 -52,98 -62,86 -220,161 -339,161 -108,0 -159,-31 -250,-151 -118,-158 -175,-284 -276,-621 -37,-123 -69,-227 -73,-233 -11,-19 -20,73 -27,280 -4,139 -11,219 -20,236 -18,36 -80,76 -165,106 -92,32 -213,31 -249,-2 -20,-18 -39,-20 -187,-24 -138,-3 -167,-1 -181,12 -10,9 -44,28 -76,43 -48,22 -74,27 -140,28 -84,0 -119,-11 -144,-45 -7,-10 -31,-24 -53,-30 -58,-18 -121,-78 -162,-156 -43,-84 -63,-150 -78,-262 -19,-140 -128,-402 -224,-537 -44,-61 -101,-114 -122,-114 -16,0 -22,50 -29,235 -8,193 -2,252 52,526 27,135 35,196 30,225 -17,88 -141,154 -290,154 -94,0 -133,-20 -165,-82 -37,-76 -88,-289 -111,-468 -18,-140 -180,-523 -276,-653 -19,-27 -37,-47 -39,-45 -8,7 -45,327 -56,478 -25,333 10,747 97,1168 l 28,132 h 130 c 233,0 486,33 613,80 124,46 212,131 213,206 0,37 -16,54 -52,54 -21,0 -33,-9 -52,-39 -14,-21 -40,-48 -59,-60 -111,-68 -411,-121 -688,-121 h -117 l -11,43 c -20,80 -99,138 -208,152 -86,11 -136,-17 -213,-124 l -15,-20 -135,19 c -511,72 -719,71 -891,-6 -93,-42 -147,-110 -140,-179 4,-48 76,-49 129,-1 83,76 209,116 362,116 79,0 609,-62 628,-74 4,-2 -7,-78 -25,-168 -40,-202 -82,-537 -89,-723 -5,-118 -11,-161 -41,-269 -78,-289 -197,-585 -290,-722 -39,-57 -124,-144 -141,-144 -33,0 -51,312 -33,570 15,207 38,340 102,586 81,312 89,374 53,445 -22,43 -76,88 -131,109 -153,57 -256,-9 -333,-214 -17,-45 -35,-91 -40,-104 l -10,-23 -28,21 c -125,97 -233,142 -342,143 -87,1 -142,-21 -214,-84 -114,-100 -216,-351 -216,-530 0,-47 -118,-366 -184,-498 -62,-125 -146,-247 -146,-214 0,4 -9,77 -20,161 -66,511 -47,936 66,1480 l 28,132 h 130 c 233,0 486,33 613,80 124,46 212,131 213,205 0,38 -16,55 -52,55 -21,0 -33,-9 -52,-39 -14,-21 -40,-48 -59,-60 -111,-68 -411,-121 -688,-121 h -117 l -11,43 c -20,80 -99,138 -208,152 -87,11 -136,-17 -213,-124 l -15,-20 -161,22 c -159,23 -162,24 -205,61 -128,109 -338,151 -563,110 z m 2310,-973 c 46,-33 66,-55 86,-94 13,-25 11,-42 -18,-175 -18,-81 -35,-164 -39,-184 -8,-52 -92,-174 -187,-271 l -79,-82 5,115 c 9,184 83,571 130,684 19,45 48,47 102,7 z m 3309,-101 c 40,-15 76,-103 82,-204 10,-154 -32,-346 -99,-451 -28,-44 -94,-115 -107,-115 -11,0 -21,62 -21,135 0,86 16,203 56,410 19,99 32,189 30,201 -9,35 10,43 59,24 z"
           id="path1113"
           style="fill:#000000;stroke:#000000;stroke-width:32.99181631;stroke-dasharray:none" /><path
           d="m 11895,2825 c -5,-2 -22,-6 -37,-9 -61,-14 -54,-74 14,-131 40,-34 83,-53 146,-65 133,-24 170,40 77,134 -29,28 -58,47 -87,54 -57,15 -101,21 -113,17 z"
           id="path1115"
           style="fill:#000000;stroke:#000000;stroke-width:32.99181631;stroke-dasharray:none" /></g></g><path
       style="opacity:0.99;fill:none;stroke:#000000;stroke-width:0.5;stroke-dasharray:none"
       d="M 20.417325,343.7492 H 340.41728"
       id="path3415"
       inkscape:path-effect="#path-effect3417"
       inkscape:original-d="m 20.417325,343.7492 c 106.666925,2.7e-4 213.333585,2.7e-4 319.999955,0" /><path
       style="display:inline;opacity:0.99;fill:none;stroke:#000000;stroke-width:0.5;stroke-dasharray:none"
       d="m 20.167718,104.75914 v 239.2562"
       id="path3415-4"
       inkscape:path-effect="#path-effect3417-7"
       inkscape:original-d="m 20.167718,104.75914 c -2.6e-4,79.7523 -2.6e-4,159.50435 0,239.2562" /><path
       style="display:inline;opacity:0.99;fill:none;stroke:#000000;stroke-width:0.5;stroke-dasharray:none"
       d="M 340.67722,344.01534 V 104.44736"
       id="path3415-7"
       inkscape:path-effect="#path-effect3417-73"
       inkscape:original-d="m 340.67722,344.01534 c 2.5e-4,-79.8562 2.5e-4,-159.71221 0,-239.56798" /><rect
       style="opacity:0.99;fill:none;stroke:#000000;stroke-width:0.5;stroke-dasharray:none"
       id="rect4090"
       width="69.674561"
       height="45.153725"
       x="145.43005"
       y="290.98099" /><path
       style="display:none;opacity:0.99;fill:none;stroke:#000000;stroke-width:0.499999"
       d="M 20.108333,104.775 C 57.099392,55.325803 118.09647,24.748333 179.85049,24.697213 c 61.75402,-0.05112 122.80163,30.425321 159.87451,79.813207 0.0331,0.0441 0.0662,0.0882 0.0992,0.13229"
       id="path4437"
       inkscape:path-effect="#path-effect4439"
       inkscape:original-d="m 20.108333,104.775 c 106.539147,2.6e-4 213.078037,-0.17613 319.616667,-0.26458 106.53863,-0.0885 -2.28177,-2.51328 0.0992,0.13229"
       sodipodi:nodetypes="csc" /><path
       style="display:inline;opacity:0.99;fill:none;stroke:#000000;stroke-width:0.499922;stroke-dasharray:none"
       id="path4495"
       sodipodi:type="arc"
       sodipodi:cx="180.43314"
       sodipodi:cy="106.53149"
       sodipodi:rx="160.30853"
       sodipodi:ry="73.202728"
       sodipodi:start="3.1646927"
       sodipodi:end="6.2549416"
       sodipodi:arc-type="arc"
       d="M 20.167373,104.84065 A 160.30853,73.202728 0 0 1 180.02085,33.329 160.30853,73.202728 0 0 1 340.67773,104.46424"
       sodipodi:open="true" /></g></svg>
