<?xml version="1.0" encoding="UTF-8" standalone="no"?>
<!-- Created with Inkscape (http://www.inkscape.org/) -->

<svg
   width="236.00833mm"
   height="235.92915mm"
   viewBox="0 0 236.00833 235.92915"
   version="1.1"
   id="svg11026"
   sodipodi:docname="ruotaconbuchi.svg"
   inkscape:version="1.2.2 (732a01da63, 2022-12-09)"
   xml:space="preserve"
   xmlns:inkscape="http://www.inkscape.org/namespaces/inkscape"
   xmlns:sodipodi="http://sodipodi.sourceforge.net/DTD/sodipodi-0.dtd"
   xmlns="http://www.w3.org/2000/svg"
   xmlns:svg="http://www.w3.org/2000/svg"><sodipodi:namedview
     id="namedview11028"
     pagecolor="#ffffff"
     bordercolor="#eeeeee"
     borderopacity="1"
     inkscape:showpageshadow="0"
     inkscape:pageopacity="0"
     inkscape:pagecheckerboard="0"
     inkscape:deskcolor="#505050"
     inkscape:document-units="mm"
     showgrid="false"
     inkscape:zoom="0.4088234"
     inkscape:cx="397.48214"
     inkscape:cy="530.79153"
     inkscape:window-width="1600"
     inkscape:window-height="829"
     inkscape:window-x="-8"
     inkscape:window-y="-8"
     inkscape:window-maximized="1"
     inkscape:current-layer="layer1"
     inkscape:lockguides="false" /><defs
     id="defs11023"><inkscape:path-effect
       effect="spiro"
       id="path-effect13952"
       is_visible="true"
       lpeversion="1" /><inkscape:path-effect
       effect="spiro"
       id="path-effect13948"
       is_visible="true"
       lpeversion="1" /><inkscape:path-effect
       effect="spiro"
       id="path-effect13944"
       is_visible="true"
       lpeversion="1" /><inkscape:path-effect
       effect="spiro"
       id="path-effect13940"
       is_visible="true"
       lpeversion="1" /><inkscape:path-effect
       effect="spiro"
       id="path-effect13936"
       is_visible="true"
       lpeversion="1" /><inkscape:path-effect
       effect="spiro"
       id="path-effect13932"
       is_visible="true"
       lpeversion="1" /><inkscape:path-effect
       effect="spiro"
       id="path-effect13928"
       is_visible="true"
       lpeversion="1" /><inkscape:path-effect
       effect="spiro"
       id="path-effect12511"
       is_visible="true"
       lpeversion="1" /><inkscape:path-effect
       effect="spiro"
       id="path-effect12507"
       is_visible="true"
       lpeversion="1" /><inkscape:path-effect
       effect="spiro"
       id="path-effect12461"
       is_visible="true"
       lpeversion="1" /><inkscape:path-effect
       effect="spiro"
       id="path-effect12457"
       is_visible="true"
       lpeversion="1" /><inkscape:path-effect
       effect="spiro"
       id="path-effect12453"
       is_visible="true"
       lpeversion="1" /><inkscape:path-effect
       effect="spiro"
       id="path-effect12361"
       is_visible="true"
       lpeversion="1" /><inkscape:path-effect
       effect="spiro"
       id="path-effect12361-2"
       is_visible="true"
       lpeversion="1" /><inkscape:path-effect
       effect="spiro"
       id="path-effect12361-29"
       is_visible="true"
       lpeversion="1" /><inkscape:path-effect
       effect="spiro"
       id="path-effect12453-3"
       is_visible="true"
       lpeversion="1" /><inkscape:path-effect
       effect="spiro"
       id="path-effect12453-5"
       is_visible="true"
       lpeversion="1" /><inkscape:path-effect
       effect="spiro"
       id="path-effect12457-0"
       is_visible="true"
       lpeversion="1" /><inkscape:path-effect
       effect="spiro"
       id="path-effect12457-3"
       is_visible="true"
       lpeversion="1" /><inkscape:path-effect
       effect="spiro"
       id="path-effect12453-3-4"
       is_visible="true"
       lpeversion="1" /></defs><g
     inkscape:label="Livello 1"
     inkscape:groupmode="layer"
     id="layer1"
     style="display:inline"
     transform="translate(-6.6748354,-23.301606)"><g
       inkscape:label="Rendered Gears"
       transform="rotate(120,21.587858,106.6062)"
       id="g11115"
       style="display:inline;stroke:#000000"><path
         style="fill:none;stroke:#000000;stroke-width:0.5;stroke-dasharray:none"
         d="m 104.928,-4.90096 4.668,-0.21806 1.7,0.1207 6.431,1.64259 v 6.71146 l -6.431,1.64259 -1.7,0.1207 -4.668,-0.21806 -0.811,9.01244 4.632,0.6191 1.651,0.4222 6.034,2.7644 -1.198,6.6036 -6.621,0.468 -1.694,-0.1848 -4.554,-1.0481 -2.4078,8.7228 4.4478,1.4362 1.549,0.7103 5.443,3.7974 -2.358,6.2835 -6.598,-0.7217 -1.634,-0.4843 -4.2939,-1.8445 -3.9262,8.1527 4.1196,2.2073 1.3973,0.9755 4.6782,4.7083 -3.4427,5.7614 -6.3628,-1.8881 -1.5211,-0.7683 -3.8959,-2.5816 -5.3188,7.3206 3.6592,2.9075 1.2007,1.2092 3.762,5.4679 -4.4157,5.0542 -5.9234,-2.9939 -1.3596,-1.0275 -3.3723,-3.2358 -6.5404,6.2533 3.0813,3.5141 0.9654,1.4042 2.7252,6.0518 -5.2472,4.1845 -5.2936,-4.0035 -1.1543,-1.2537 -2.7403,-3.786 -7.5519,4.985 2.4043,4.0078 0.6992,1.5541 1.6008,6.4415 -5.9101,3.18 -4.4937,-4.884 -0.9118,-1.4401 -2.0202,-4.2145 -8.3207,3.5565 1.65,4.3731 0.4105,1.653 0.425,6.624 -6.383,2.074 -3.5493,-5.608 -0.6401,-1.58 -1.2353,-4.507 -8.822,2.013 0.8428,4.597 0.1085,1.701 -0.7645,6.593 -6.6507,0.901 -2.49092,-6.152 -0.34778,-1.668 -0.41059,-4.656 -9.03976,0.406 0.00839,4.674 L 0,111.408 l -1.92944,6.351 -6.70471,-0.301 -1.35243,-6.498 -0.04432,-1.704 0.42731,-4.654 -8.96701,-1.214 -0.8262,4.6 -0.4959,1.63 -3.0324,5.904 -6.5432,-1.494 -0.1705,-6.634 0.2606,-1.684 1.2515,-4.503 -8.606,-2.7967 -1.6344,4.3787 -0.779,1.515 -4.0378,5.268 -6.1714,-2.638 1.017,-6.558 0.5571,-1.6109 2.0354,-4.2072 -7.9684,-4.288 -2.3899,4.0164 -1.0372,1.3522 -4.9135,4.4615 -5.6012,-3.697 2.1717,-6.2717 0.8358,-1.4851 2.7539,-3.7761 -7.0747,-5.6419 -3.0687,3.5251 -1.2619,1.1452 -5.6312,3.5129 -4.851,-4.6381 3.2566,-5.7831 1.0875,-1.312 3.3839,-3.2237 -5.9536,-6.8145 -3.6488,2.9205 -1.4461,0.9015 -6.168,2.4509 -3.9449,-5.4296 4.237,-5.1087 1.3042,-1.0968 3.9052,-2.5677 -4.6412,-7.768 -4.1116,2.2221 -1.5839,0.6288 -6.5062,1.3102 -2.912,-6.0468 5.081,-4.2701 1.479,-0.8463 4.3008,-1.8291 -3.1795,-8.4719 -4.4423,1.4522 -1.671,0.3359 -6.636,0.1274 -1.785,-6.4696 5.762,-3.2942 1.606,-0.5686 4.559,-1.0318 -1.616,-8.9034 -4.63,0.6357 -1.704,0.0321 -6.552,-1.0595 -0.602,-6.68447 6.258,-2.21241 1.682,-0.27258 4.669,-0.20131 v -9.04886 l -4.669,-0.20131 -1.682,-0.27258 -6.258,-2.21241 0.602,-6.68447 6.552,-1.0595 1.704,0.0321 4.63,0.6357 1.616,-8.9034 -4.559,-1.0318 -1.606,-0.5686 -5.762,-3.2942 1.785,-6.4696 6.636,0.1274 1.671,0.3359 4.4423,1.4522 3.1795,-8.4719 -4.3008,-1.8291 -1.479,-0.8463 -5.081,-4.2701 2.912,-6.0468 6.5062,1.3102 1.5839,0.6288 4.1116,2.2221 4.6412,-7.768 -3.9052,-2.5677 -1.3042,-1.0968 -4.237,-5.1087 3.9449,-5.4296 6.168,2.4509 1.4461,0.9015 3.6488,2.9205 5.9536,-6.8145 -3.3839,-3.2237 -1.0875,-1.312 -3.2566,-5.7831 4.851,-4.6381 5.6312,3.5129 1.2619,1.1452 3.0687,3.5251 7.0747,-5.6419 -2.7539,-3.7761 -0.8358,-1.4851 -2.1717,-6.2717 5.6012,-3.697 4.9135,4.4615 1.0372,1.3522 2.3899,4.0164 7.9684,-4.288 -2.0354,-4.2072 -0.5571,-1.6109 -1.017,-6.558 6.1714,-2.638 4.0378,5.268 0.779,1.515 1.6344,4.3787 8.606,-2.7967 -1.2515,-4.503 -0.2606,-1.684 0.1705,-6.634 6.5432,-1.494 3.0324,5.904 0.4959,1.63 0.8262,4.6 8.96701,-1.214 -0.42731,-4.654 0.04432,-1.704 1.35243,-6.498 6.70471,-0.301 1.92944,6.351 0.19684,1.692 -0.00839,4.674 9.03976,0.406 0.41059,-4.656 0.34778,-1.668 2.49092,-6.152 6.6507,0.901 0.7645,6.593 -0.1085,1.701 -0.8428,4.597 8.822,2.013 1.2353,-4.507 0.6401,-1.58 3.5493,-5.608 6.383,2.074 -0.425,6.624 -0.4105,1.653 -1.65,4.3731 8.3207,3.5565 2.0202,-4.2145 0.9118,-1.4401 4.4937,-4.884 5.9101,3.18 -1.6008,6.4415 -0.6992,1.5541 -2.4043,4.0078 7.5519,4.985 2.7403,-3.786 1.1543,-1.2537 5.2936,-4.0035 5.2472,4.1845 -2.7252,6.0518 -0.9654,1.4042 -3.0813,3.5141 6.5404,6.2533 3.3723,-3.2358 1.3596,-1.0275 5.9234,-2.9939 4.4157,5.0542 -3.762,5.4679 -1.2007,1.2092 -3.6592,2.9075 5.3188,7.3206 3.8959,-2.5816 1.5211,-0.7683 6.3628,-1.8881 3.4427,5.7614 -4.6782,4.7083 -1.3973,0.9755 -4.1196,2.2073 3.9262,8.1527 4.2939,-1.8445 1.634,-0.4843 6.598,-0.7217 2.358,6.2835 -5.443,3.7974 -1.549,0.7103 -4.4478,1.4362 2.4078,8.7228 4.554,-1.0481 1.694,-0.1848 6.621,0.468 1.198,6.6036 -6.034,2.7644 -1.651,0.4222 -4.632,0.6191 z"
         id="path11111" /><circle
         style="fill:none;stroke:#000000;stroke-width:0.5;stroke-dasharray:none"
         id="path11113"
         cx="0"
         cy="0"
         r="2.5" /></g><g
       inkscape:label="Rendered Gears"
       transform="rotate(-120,103.15676,34.675272)"
       id="g13924"
       style="display:inline;stroke:#000000"><path
         id="circle13964"
         style="display:inline;opacity:1;fill:none;stroke:#000000;stroke-width:0.499999"
         transform="rotate(-120)"
         d="m -12.833657,-14.319872 c 7.2439041,-6.441775 18.1473661,-6.493467 25.452023,-0.120666 m 44.037393,-58.269358 c 7.712977,6.008508 14.421792,13.2049 19.875305,21.319786 m -95.397769,-38.819731 c 10.8375242,-2.247218 22.0873243,-2.581529 33.023557,-0.878375 m 0.178799,-0.08977 c -0.497613,0.347602 -1.030273,0.672049 -1.365598,0.998181 l -0.686427,0.819368 -0.617887,-0.217279 c -0.793236,-0.288958 -2.5578389,-0.557261 -3.5262283,-0.547358 -3.4716511,0.03504 -6.2573061,1.637625 -7.43300029,4.252993 -1.23346065,2.749891 -0.3837341,6.064634 2.19367259,8.630215 1.3597053,1.360327 2.7638463,2.188805 4.7755146,2.82649 1.9991531,0.645794 3.5335104,0.78092 5.3228494,0.477192 l 0.773337,-0.12176 0.423551,0.325592 c 1.36135,1.094499 4.027942,2.075487 5.912909,2.168699 2.214738,0.126571 4.376638,-0.409815 6.212053,-1.511221 l 0.779707,-0.478897 0.637158,0.593096 c 0.933082,0.860219 2.387397,1.841512 3.981768,2.687896 0.76707,0.420645 1.927201,1.054256 2.557096,1.41379 0.642419,0.351423 1.578269,0.830349 2.075705,1.037457 2.136424,0.892176 4.367161,0.849516 6.078641,-0.100944 l 0.595533,-0.333048 1.423211,0.833759 c 1.244285,0.737936 1.537731,0.865444 2.338675,1.05233 0.791382,0.184255 1.044818,0.196493 1.874791,0.05567 1.893704,-0.30959 2.99128,-0.712108 4.365268,-1.593871 1.40203,-0.908733 2.81337,-2.185366 3.283418,-2.993081 0.182669,-0.311689 0.425793,-1.003335 0.631369,-1.726097 m -111.334694,-1.837505 c -1.586503,2.111733 -1.705585,4.433741 -0.208793,6.332323 0.670054,0.843708 1.53335,1.466234 2.878677,2.039445 3.812491,1.650349 8.9103,1.412142 13.4215,-0.614918 0.733446,-0.33338 1.339916,-0.687669 2.326308,-1.358582 l 1.331582,-0.914553 0.746606,0.139174 c 5.204776,0.998789 11.704033,-0.935812 16.122382,-4.795992 1.381421,-1.20432 2.779689,-2.996815 3.350854,-4.293317 l 0.253595,-0.567313 0.32428,0.07214 c 0.736857,0.168801 2.259643,0.243374 3.403807,0.17502 1.8457421,-0.117753 2.897545,-0.483046 5.3882874,-1.885769 1.3207429,-0.743299 2.3834772,-1.800817 3.1300357,-3.10967 0.7278239,-1.276329 0.8717398,-2.364571 0.4683276,-3.506074 -0.3012976,-0.874193 -0.7078661,-1.387784 -1.5664505,-1.967682 -2.1216472,-1.435665 -5.7066534,-1.499339 -9.0408442,-0.169278 l -0.912343,0.364517 -1.204659,-0.512566 c -1.572591,-0.666229 -3.151274,-1.050745 -4.746283,-1.155353 m 6.40162,75.704755 c -0.282163,-0.162906 -0.565425,-0.326453 -0.849743,-0.490614 -21.512221,-12.420872 -49.064405,-28.359536 -63.238167,-36.542783 m -0.07331,0.245386 c 6.016509,-8.981031 13.564651,-16.83475 22.29997,-23.202756 m 66.800209,59.905119 c 21.336876,-12.318715 49.26822,-28.444996 64.243782,-37.091223" /><path
         id="path13978"
         style="fill:none;stroke:#000000;stroke-width:0.5;stroke-dasharray:none"
         d="m -29.077843,-87.615438 c -2.327005,2.758349 -2.487343,6.474285 0.638312,9.489223 1.18542,1.13787 3.153219,2.206778 5.263262,2.792956 1.967792,0.568932 5.713716,0.568932 7.82376,0 l 1.493628,-0.396531 0.924631,0.620657 c 2.086334,1.361995 3.793338,1.930932 6.828013,2.241261 l 1.944088,0.189647 -4.907634,4.154951 c -2.726467,2.275744 -5.761136,4.827334 -6.75689,5.654874 -1.849255,1.534401 -2.133754,1.965416 -1.541047,2.327464 0.237086,0.120686 3.105798,0.206884 9.104019,0.224125 l 8.79581102,0.05172 -8.06085202,7.758212 c -9.341098,8.999527 -9.269975,8.913324 -9.056599,9.275372 0.165956,0.344812 0.924624,0.534454 1.375085,0.344812 0.853501,-0.362054 29.540636,-21.01614 29.540636,-21.274744 0,-0.65514 -0.45046,-0.689618 -9.269974,-0.810304 l -8.606138,-0.120681 4.812801,-3.930831 c 2.631627,-2.155058 4.8365044,-3.913584 4.9076344,-3.913584 0.07112,0 0.592707,0.224126 1.138,0.517213 1.825545,0.896507 2.8924216,1.120632 5.4766366,1.120632 2.204876,0 2.489375,-0.0345 3.959304,-0.568937 2.01521,-0.70686 3.983,-2.224019 4.67054,-3.568778 0.2845,-0.534454 0.49788,-1.086149 0.49788,-1.258555 0,-0.620657 0.35563,-0.793058 1.18542,-0.568932 1.16171,0.275846 4.2438,0.241367 5.59518,-0.103444 4.43346,-1.068909 7.340181,-4.60702 6.534101,-7.830985 m -47.893648,70.762817 a 19.253695,19.253695 0 0 1 25.085762,-0.338879 m 22.650376,-70.584462 a 92.254723,92.254723 0 0 1 41.280289,33.466492 m -152.86711,0.465478 a 92.254723,92.254723 0 0 1 47.307144,-36.056333 m 41.391258,72.625043 c 21.687361,-12.521557 44.47786,-25.682778 64.350393,-37.155983 m -88.908494,37.377884 c -21.241927,-12.264166 -49.034876,-28.310319 -64.000234,-36.95049" /><path
         id="circle13964-9"
         style="display:inline;opacity:1;fill:none;stroke:#000000;stroke-width:0.499999"
         d="M -6.2282025,18.213392 C -15.354451,15.149836 -20.815434,5.8165311 -19.014966,-3.640324 m 0.118981,0.3598379 C -40.238484,-15.602561 -61.709866,-27.990606 -83.052341,-40.312721 M -6.1733093,17.9272 c 3.083e-4,24.98899 1.814e-4,51.532808 0,74.430421 M -6.3001142,92.109842 C -36.95551,90.024573 -64.56077,72.813923 -79.927617,46.206374 c -15.366847,-26.607549 -16.478189,-59.11942 -2.96412,-86.714195"
         transform="rotate(-120)"
         sodipodi:nodetypes="cccccccsc" /></g></g></svg>
